HIERARCHY
ROOT hip
{
  OFFSET 0 90.174 2.4664
  CHANNELS 6 Xposition Yposition Zposition Zrotation Xrotation Yrotation
  JOINT abdomen
  {
    OFFSET 0 -1.186 -1.5018
    CHANNELS 6 Xposition Yposition Zposition Zrotation Xrotation Yrotation
    JOINT abdomen2
    {
      OFFSET 0 9.964 0.2134
      CHANNELS 6 Xposition Yposition Zposition Zrotation Xrotation Yrotation
      JOINT chest
      {
        OFFSET 0 13.134 -3.2573
        CHANNELS 6 Xposition Yposition Zposition Zrotation Xrotation Yrotation
        JOINT neck
        {
          OFFSET 0 20.686 -1.6905
          CHANNELS 6 Xposition Yposition Zposition Zrotation Xrotation Yrotation
          JOINT head
          {
            OFFSET 0 7.238 -0.1237
            CHANNELS 6 Xposition Yposition Zposition Zrotation Xrotation Yrotation
            End Site
            {
              OFFSET 0 0 0
            }
          }
        }
        JOINT lCollar
        {
          OFFSET 1.7069 20.075 5.0056
          CHANNELS 6 Xposition Yposition Zposition Zrotation Xrotation Yrotation
          JOINT lShldr
          {
            OFFSET 13.6458 -0.047 -4.849
            CHANNELS 6 Xposition Yposition Zposition Zrotation Xrotation Yrotation
            JOINT lForeArm
            {
              OFFSET 28.3255 -0.9759 2.2888
              CHANNELS 6 Xposition Yposition Zposition Zrotation Xrotation Yrotation
              JOINT lHand
              {
                OFFSET 22.1583 -0.53 10.8316
                CHANNELS 6 Xposition Yposition Zposition Zrotation Xrotation Yrotation
                JOINT lThumb1
                {
                  OFFSET 0.786 0.112 2.5817
                  CHANNELS 6 Xposition Yposition Zposition Zrotation Xrotation Yrotation
                  JOINT lThumb2
                  {
                    OFFSET 0.3601 -0.878 4.2331
                    CHANNELS 6 Xposition Yposition Zposition Zrotation Xrotation Yrotation
                    JOINT lThumb2_End
                    {
                      OFFSET 1.8127 -1.216 2.2227
                      CHANNELS 6 Xposition Yposition Zposition Zrotation Xrotation Yrotation
                      End Site
                      {
                        OFFSET 0.0181 -0.0122 0.0222
                      }
                    }
                  }
                }
                JOINT lCarpal1
                {
                  OFFSET 0.9571 1.114 1.7695
                  CHANNELS 6 Xposition Yposition Zposition Zrotation Xrotation Yrotation
                  JOINT lIndex1
                  {
                    OFFSET 4.1246 0.487 4.1451
                    CHANNELS 6 Xposition Yposition Zposition Zrotation Xrotation Yrotation
                    JOINT lIndex2
                    {
                      OFFSET 3.4052 -1.454 2.7682
                      CHANNELS 6 Xposition Yposition Zposition Zrotation Xrotation Yrotation
                      JOINT lIndex2_End
                      {
                        OFFSET 1.4531 -1.795 1.2713
                        CHANNELS 6 Xposition Yposition Zposition Zrotation Xrotation Yrotation
                        End Site
                        {
                          OFFSET 0.0145 -0.0179 0.0127
                        }
                      }
                    }
                  }
                  JOINT lMid1
                  {
                    OFFSET 5.6954 0.21 2.1184
                    CHANNELS 6 Xposition Yposition Zposition Zrotation Xrotation Yrotation
                    JOINT lMid2
                    {
                      OFFSET 3.9766 -1.54 2.3863
                      CHANNELS 6 Xposition Yposition Zposition Zrotation Xrotation Yrotation
                      JOINT lMid2_End
                      {
                        OFFSET 1.4042 -1.926 1.125
                        CHANNELS 6 Xposition Yposition Zposition Zrotation Xrotation Yrotation
                        End Site
                        {
                          OFFSET 0.014 -0.0193 0.0113
                        }
                      }
                    }
                  }
                }
                JOINT lCarpal2
                {
                  OFFSET 2.0956 0.66 -0.3894
                  CHANNELS 6 Xposition Yposition Zposition Zrotation Xrotation Yrotation
                  JOINT lRing1
                  {
                    OFFSET 5.0395 -0.09 2.4971
                    CHANNELS 6 Xposition Yposition Zposition Zrotation Xrotation Yrotation
                    JOINT lRing2
                    {
                      OFFSET 3.7921 -1.552 1.4806
                      CHANNELS 6 Xposition Yposition Zposition Zrotation Xrotation Yrotation
                      JOINT lRing2_End
                      {
                        OFFSET 1.4655 -1.808 0.9609
                        CHANNELS 6 Xposition Yposition Zposition Zrotation Xrotation Yrotation
                        End Site
                        {
                          OFFSET 0.0147 -0.0181 0.0096
                        }
                      }
                    }
                  }
                  JOINT lPinky1
                  {
                    OFFSET 4.9141 -1.269 0.3591
                    CHANNELS 6 Xposition Yposition Zposition Zrotation Xrotation Yrotation
                    JOINT lPinky2
                    {
                      OFFSET 3.1477 -1.685 0.8462
                      CHANNELS 6 Xposition Yposition Zposition Zrotation Xrotation Yrotation
                      JOINT lPinky2_End
                      {
                        OFFSET 0.8055 -1.585 0.7955
                        CHANNELS 6 Xposition Yposition Zposition Zrotation Xrotation Yrotation
                        End Site
                        {
                          OFFSET 0.0081 -0.0158 0.008
                        }
                      }
                    }
                  }
                }
              }
            }
          }
        }
        JOINT rCollar
        {
          OFFSET -1.7069 20.075 5.0056
          CHANNELS 6 Xposition Yposition Zposition Zrotation Xrotation Yrotation
          JOINT rShldr
          {
            OFFSET -13.6458 -0.047 -4.849
            CHANNELS 6 Xposition Yposition Zposition Zrotation Xrotation Yrotation
            JOINT rForeArm
            {
              OFFSET -28.3255 -0.9759 2.2888
              CHANNELS 6 Xposition Yposition Zposition Zrotation Xrotation Yrotation
              JOINT rHand
              {
                OFFSET -22.1583 -0.53 10.8316
                CHANNELS 6 Xposition Yposition Zposition Zrotation Xrotation Yrotation
                JOINT rThumb1
                {
                  OFFSET -0.786 0.112 2.5817
                  CHANNELS 6 Xposition Yposition Zposition Zrotation Xrotation Yrotation
                  JOINT rThumb2
                  {
                    OFFSET -0.3601 -0.878 4.2331
                    CHANNELS 6 Xposition Yposition Zposition Zrotation Xrotation Yrotation
                    JOINT rThumb2_End
                    {
                      OFFSET -1.8127 -1.216 2.2227
                      CHANNELS 6 Xposition Yposition Zposition Zrotation Xrotation Yrotation
                      End Site
                      {
                        OFFSET -0.0181 -0.0122 0.0222
                      }
                    }
                  }
                }
                JOINT rCarpal1
                {
                  OFFSET -0.9571 1.114 1.7695
                  CHANNELS 6 Xposition Yposition Zposition Zrotation Xrotation Yrotation
                  JOINT rIndex1
                  {
                    OFFSET -4.1246 0.487 4.1451
                    CHANNELS 6 Xposition Yposition Zposition Zrotation Xrotation Yrotation
                    JOINT rIndex2
                    {
                      OFFSET -3.4052 -1.454 2.7682
                      CHANNELS 6 Xposition Yposition Zposition Zrotation Xrotation Yrotation
                      JOINT rIndex2_End
                      {
                        OFFSET -1.4531 -1.795 1.2713
                        CHANNELS 6 Xposition Yposition Zposition Zrotation Xrotation Yrotation
                        End Site
                        {
                          OFFSET -0.0145 -0.018 0.0127
                        }
                      }
                    }
                  }
                  JOINT rMid1
                  {
                    OFFSET -5.6954 0.21 2.1184
                    CHANNELS 6 Xposition Yposition Zposition Zrotation Xrotation Yrotation
                    JOINT rMid2
                    {
                      OFFSET -3.9766 -1.54 2.3863
                      CHANNELS 6 Xposition Yposition Zposition Zrotation Xrotation Yrotation
                      JOINT rMid2_End
                      {
                        OFFSET -1.4042 -1.926 1.125
                        CHANNELS 6 Xposition Yposition Zposition Zrotation Xrotation Yrotation
                        End Site
                        {
                          OFFSET -0.014 -0.0193 0.0113
                        }
                      }
                    }
                  }
                }
                JOINT rCarpal2
                {
                  OFFSET -2.0956 0.66 -0.3894
                  CHANNELS 6 Xposition Yposition Zposition Zrotation Xrotation Yrotation
                  JOINT rRing1
                  {
                    OFFSET -5.0395 -0.09 2.4971
                    CHANNELS 6 Xposition Yposition Zposition Zrotation Xrotation Yrotation
                    JOINT rRing2
                    {
                      OFFSET -3.7921 -1.552 1.4806
                      CHANNELS 6 Xposition Yposition Zposition Zrotation Xrotation Yrotation
                      JOINT rRing2_End
                      {
                        OFFSET -1.4655 -1.808 0.9609
                        CHANNELS 6 Xposition Yposition Zposition Zrotation Xrotation Yrotation
                        End Site
                        {
                          OFFSET -0.0147 -0.0181 0.0096
                        }
                      }
                    }
                  }
                  JOINT rPinky1
                  {
                    OFFSET -4.9141 -1.269 0.3592
                    CHANNELS 6 Xposition Yposition Zposition Zrotation Xrotation Yrotation
                    JOINT rPinky2
                    {
                      OFFSET -3.1477 -1.685 0.8462
                      CHANNELS 6 Xposition Yposition Zposition Zrotation Xrotation Yrotation
                      JOINT rPinky2_End
                      {
                        OFFSET -0.8055 -1.585 0.7955
                        CHANNELS 6 Xposition Yposition Zposition Zrotation Xrotation Yrotation
                        End Site
                        {
                          OFFSET -0.0081 -0.0158 0.008
                        }
                      }
                    }
                  }
                }
              }
            }
          }
        }
      }
    }
  }
  JOINT lThigh
  {
    OFFSET 8.367 -8.2066 0.5982
    CHANNELS 6 Xposition Yposition Zposition Zrotation Xrotation Yrotation
    JOINT lShin
    {
      OFFSET 2.1923 -43.463 -0.4932
      CHANNELS 6 Xposition Yposition Zposition Zrotation Xrotation Yrotation
      JOINT lFoot
      {
        OFFSET 0.7333 -45.8593 -2.6451
        CHANNELS 6 Xposition Yposition Zposition Zrotation Xrotation Yrotation
        End Site
        {
          OFFSET 2.6618 -4.2699 12.3931
        }
      }
    }
  }
  JOINT rThigh
  {
    OFFSET -8.367 -8.2066 0.5982
    CHANNELS 6 Xposition Yposition Zposition Zrotation Xrotation Yrotation
    JOINT rShin
    {
      OFFSET -2.1923 -43.463 -0.4931
      CHANNELS 6 Xposition Yposition Zposition Zrotation Xrotation Yrotation
      JOINT rFoot
      {
        OFFSET -0.7333 -45.8593 -2.6451
        CHANNELS 6 Xposition Yposition Zposition Zrotation Xrotation Yrotation
        End Site
        {
          OFFSET -2.6618 -4.2699 12.3931
        }
      }
    }
  }
}
MOTION
Frames:	4
Frame Time:	0.0333333
0 90.174 2.4664 0 0 -0 0 -1.186 -1.5018 0 0 -0 0 9.964 0.2134 0 0 -0 0 13.134 -3.2573 0 0 -0 0 20.686 -1.6905 0 0 -0 0 7.238 -0.1237 0 0 -0 1.7069 20.075 5.0056 0 0 -0 13.6458 -0.047 -4.849 1.66051 0.0835086 5.75766 28.3255 -0.9759 2.2888 -0.0175111 0.895433 15.7816 22.1583 -0.53 10.8316 7.95139e-016 -1.98785e-016 -0 0.786 0.112 2.5817 5.46658e-016 -3.97569e-016 -0 0.3601 -0.878 4.2331 5.96354e-016 0 -0 1.8127 -1.216 2.2227 3.97569e-016 1.98785e-016 9.54166e-015 0.9571 1.114 1.7695 1.49089e-016 -3.97569e-016 -0 4.1246 0.487 4.1451 6.4605e-016 0 3.18055e-015 3.4052 -1.454 2.7682 5.96354e-016 0 3.18055e-015 1.4531 -1.795 1.2713 8.94531e-016 -1.98785e-016 6.36111e-015 5.6954 0.21 2.1184 6.4605e-016 0 3.18055e-015 3.9766 -1.54 2.3863 5.96354e-016 0 3.18055e-015 1.4042 -1.926 1.125 8.94531e-016 -1.98785e-016 6.36111e-015 2.0956 0.66 -0.3894 1.49089e-016 -3.97569e-016 -0 5.0395 -0.09 2.4971 6.4605e-016 0 3.18055e-015 3.7921 -1.552 1.4806 5.96354e-016 0 3.18055e-015 1.4655 -1.808 0.9609 8.94531e-016 -1.98785e-016 6.36111e-015 4.9141 -1.269 0.3591 6.4605e-016 0 3.18055e-015 3.1477 -1.685 0.8462 5.96354e-016 0 3.18055e-015 0.8055 -1.585 0.7955 8.94531e-016 -1.98785e-016 6.36111e-015 -1.7069 20.075 5.0056 0 0 -0 -13.6458 -0.047 -4.849 -1.4496 0.0636048 -5.0245 -28.3255 -0.9759 2.2888 -1.74811 1.20616 -16.8394 -22.1583 -0.53 10.8316 -1.19271e-015 1.98785e-016 -3.18055e-015 -0.786 0.112 2.5817 -3.97569e-016 1.98785e-016 -3.18055e-015 -0.3601 -0.878 4.2331 -2.98177e-016 1.98785e-016 -3.18055e-015 -1.8127 -1.216 2.2227 -2.98177e-016 3.97569e-016 -0 -0.9571 1.114 1.7695 4.96962e-016 0 -6.36111e-015 -4.1246 0.487 4.1451 -9.93923e-017 3.97569e-016 -0 -3.4052 -1.454 2.7682 -8.94531e-016 5.96354e-016 -0 -1.4531 -1.795 1.2713 -3.97569e-016 3.97569e-016 -0 -5.6954 0.21 2.1184 -9.93923e-017 3.97569e-016 -0 -3.9766 -1.54 2.3863 -8.94531e-016 5.96354e-016 -0 -1.4042 -1.926 1.125 -3.97569e-016 3.97569e-016 -0 -2.0956 0.66 -0.3894 4.96962e-016 0 -6.36111e-015 -5.0395 -0.09 2.4971 -9.93923e-017 3.97569e-016 -0 -3.7921 -1.552 1.4806 -8.94531e-016 5.96354e-016 -0 -1.4655 -1.808 0.9609 -3.97569e-016 3.97569e-016 -0 -4.9141 -1.269 0.3592 -9.93923e-017 3.97569e-016 -0 -3.1477 -1.685 0.8462 -8.94531e-016 5.96354e-016 -0 -0.8055 -1.585 0.7955 -3.97569e-016 3.97569e-016 -0 8.367 -8.2066 0.5982 -4.66115 -1.03232 0.120763 2.1923 -43.463 -0.4932 0.00990601 1.55097 0.177175 0.7333 -45.8593 -2.6451 4.65196 -0.54114 -0.255042 -8.367 -8.2066 0.5982 4.66115 -1.03222 -0.120763 -2.1923 -43.463 -0.4931 -0.00990459 1.5509 -0.177176 -0.7333 -45.8593 -2.6451 -4.65196 -0.541171 0.255041 
8.95054e-005 28.2457 54.5457 -0 -69.6329 -0 0 -1.186 -1.5018 0.000142468 -0.121791 -0.0667367 -1.38778e-017 9.964 0.2134 0.000143074 -0.243561 -0.133473 0 13.134 -3.2573 0.000143115 -0.243575 -0.133473 -2.77556e-017 20.686 -1.6905 -0.000241666 16.3776 0.000849093 0 7.238 -0.1237 -6.94148e-009 6.75972 -4.01331e-008 1.7069 20.075 5.0056 -5.9702 -0.108697 -0.00842475 13.6458 -0.047 -4.849 -55.8805 -0.341185 2.835 28.3255 -0.9759 2.2888 2.9672 -2.82005 -13.5656 22.1583 -0.53 10.8316 -11.1941 4.68591 1.88996 0.786 0.112 2.5817 6.62086e-031 -7.95139e-015 4.77083e-015 0.3601 -0.878 4.2331 -3.18055e-015 -7.95139e-015 4.77083e-015 1.8127 -1.216 2.2227 -0 -8.74653e-015 -0 0.9571 1.114 1.7695 -3.18055e-015 -1.59028e-015 3.18055e-015 4.1246 0.487 4.1451 -6.36111e-015 -1.03368e-014 6.36111e-015 3.4052 -1.454 2.7682 2.20695e-031 -7.95139e-015 1.59028e-015 1.4531 -1.795 1.2713 -3.18055e-015 -5.56597e-015 3.18055e-015 5.6954 0.21 2.1184 -6.36111e-015 -1.03368e-014 6.36111e-015 3.9766 -1.54 2.3863 2.20695e-031 -7.95139e-015 1.59028e-015 1.4042 -1.926 1.125 -3.18055e-015 -5.56597e-015 3.18055e-015 2.0956 0.66 -0.3894 -3.18055e-015 -1.59028e-015 3.18055e-015 5.0395 -0.09 2.4971 -6.36111e-015 -1.03368e-014 6.36111e-015 3.7921 -1.552 1.4806 2.20695e-031 -7.95139e-015 1.59028e-015 1.4655 -1.808 0.9609 -3.18055e-015 -5.56597e-015 3.18055e-015 4.9141 -1.269 0.3591 -6.36111e-015 -1.03368e-014 6.36111e-015 3.1477 -1.685 0.8462 2.20695e-031 -7.95139e-015 1.59028e-015 0.8055 -1.585 0.7955 -3.18055e-015 -5.56597e-015 3.18055e-015 -1.7069 20.075 5.0056 5.9542 -0.145644 0.0197715 -13.6458 -0.047 -4.849 56.0829 -0.35475 -2.09133 -28.3255 -0.9759 2.2888 -1.47493 -1.00144 26.6918 -22.1583 -0.53 10.8316 11.1659 4.78762 -1.83351 -0.786 0.112 2.5817 5.35414e-006 2.52416e-006 -2.55537e-006 -0.3601 -0.878 4.2331 -3.01732e-032 1.73937e-015 9.93923e-016 -1.8127 -1.216 2.2227 -5.35414e-006 -2.52416e-006 2.55537e-006 -0.9571 1.114 1.7695 6.36111e-015 2.48481e-015 5.96354e-016 -4.1246 0.487 4.1451 5.35414e-006 2.52416e-006 -2.55537e-006 -3.4052 -1.454 2.7682 -1.72418e-034 9.93923e-017 9.93923e-017 -1.4531 -1.795 1.2713 -5.35414e-006 -2.52416e-006 2.55537e-006 -5.6954 0.21 2.1184 5.35414e-006 2.52416e-006 -2.55537e-006 -3.9766 -1.54 2.3863 -1.72418e-034 9.93923e-017 9.93923e-017 -1.4042 -1.926 1.125 -5.35414e-006 -2.52416e-006 2.55537e-006 -2.0956 0.66 -0.3894 6.36111e-015 2.48481e-015 5.96354e-016 -5.0395 -0.09 2.4971 5.35414e-006 2.52416e-006 -2.55537e-006 -3.7921 -1.552 1.4806 -1.72418e-034 9.93923e-017 9.93923e-017 -1.4655 -1.808 0.9609 -5.35414e-006 -2.52416e-006 2.55537e-006 -4.9141 -1.269 0.3592 5.35414e-006 2.52416e-006 -2.55537e-006 -3.1477 -1.685 0.8462 -1.72418e-034 9.93923e-017 9.93923e-017 -0.8055 -1.585 0.7955 -5.35414e-006 -2.52416e-006 2.55537e-006 8.367 -8.2066 0.5982 18.937 -25.4981 16.3616 2.1923 -43.463 -0.4932 38.9364 66.9388 -46.4393 0.7333 -45.8593 -2.6451 1.49503 14.4271 -2.88935 -8.367 -8.2066 0.5982 -18.9386 -25.4963 -16.3621 -2.1923 -43.463 -0.4931 -38.9376 66.9371 46.4367 -0.7333 -45.8593 -2.6451 -1.4954 14.4274 2.88558 
-0.000106906 -2.56521 80.4395 -180 -79.0323 -180 0 -1.186 -1.5018 7.28654e-005 -0.151824 -0.0965415 -6.93889e-018 9.964 0.2134 -0.000110097 -0.303657 -0.193084 1.38778e-017 13.134 -3.2573 -0.000110151 -0.303647 -0.193084 -2.77556e-017 20.686 -1.6905 -8.91734e-006 23.3407 2.19836e-005 0 7.238 -0.1237 -1.16058e-007 9.33582 1.04832e-007 1.7069 20.075 5.0056 -8.3314 -0.34331 0.0653813 13.6458 -0.047 -4.849 -82.0271 -0.490368 1.5959 28.3255 -0.9759 2.2888 3.37995 -3.79936 -27.0568 22.1583 -0.53 10.8316 -16.316 6.68933 3.21031 0.786 0.112 2.5817 -7.95139e-016 -2.54444e-014 6.36111e-015 0.3601 -0.878 4.2331 -2.38542e-015 -2.46493e-014 6.36111e-015 1.8127 -1.216 2.2227 -2.38542e-015 -2.8625e-014 6.36111e-015 0.9571 1.114 1.7695 2.38542e-015 2.38542e-015 -3.18055e-015 4.1246 0.487 4.1451 3.18055e-015 -2.8625e-014 6.36111e-015 3.4052 -1.454 2.7682 -7.95139e-016 -2.54444e-014 6.36111e-015 1.4531 -1.795 1.2713 -2.38542e-015 -2.54444e-014 3.18055e-015 5.6954 0.21 2.1184 3.18055e-015 -2.8625e-014 6.36111e-015 3.9766 -1.54 2.3863 -7.95139e-016 -2.54444e-014 6.36111e-015 1.4042 -1.926 1.125 -2.38542e-015 -2.54444e-014 3.18055e-015 2.0956 0.66 -0.3894 2.38542e-015 2.38542e-015 -3.18055e-015 5.0395 -0.09 2.4971 3.18055e-015 -2.8625e-014 6.36111e-015 3.7921 -1.552 1.4806 -7.95139e-016 -2.54444e-014 6.36111e-015 1.4655 -1.808 0.9609 -2.38542e-015 -2.54444e-014 3.18055e-015 4.9141 -1.269 0.3591 3.18055e-015 -2.8625e-014 6.36111e-015 3.1477 -1.685 0.8462 -7.95139e-016 -2.54444e-014 6.36111e-015 0.8055 -1.585 0.7955 -2.38542e-015 -2.54444e-014 3.18055e-015 -1.7069 20.075 5.0056 8.37469 -0.214329 -0.112482 -13.6458 -0.047 -4.849 82.2051 -0.489402 -0.902467 -28.3255 -0.9759 2.2888 -0.805265 -1.91148 46.6177 -22.1583 -0.53 10.8316 16.2266 6.91679 -2.94479 -0.786 0.112 2.5817 -9.74045e-015 -6.75868e-015 -0 -0.3601 -0.878 4.2331 -7.15625e-015 -5.56597e-015 3.18055e-015 -1.8127 -1.216 2.2227 -9.74045e-015 -7.55382e-015 3.18055e-015 -0.9571 1.114 1.7695 1.39149e-015 1.59028e-015 -0 -4.1246 0.487 4.1451 -1.09332e-014 -7.95139e-015 6.36111e-015 -3.4052 -1.454 2.7682 -1.25234e-014 -5.1684e-015 1.27222e-014 -1.4531 -1.795 1.2713 -1.17283e-014 -9.14409e-015 3.18055e-015 -5.6954 0.21 2.1184 -1.09332e-014 -7.95139e-015 6.36111e-015 -3.9766 -1.54 2.3863 -1.25234e-014 -5.1684e-015 1.27222e-014 -1.4042 -1.926 1.125 -1.17283e-014 -9.14409e-015 3.18055e-015 -2.0956 0.66 -0.3894 1.39149e-015 1.59028e-015 -0 -5.0395 -0.09 2.4971 -1.09332e-014 -7.95139e-015 6.36111e-015 -3.7921 -1.552 1.4806 -1.25234e-014 -5.1684e-015 1.27222e-014 -1.4655 -1.808 0.9609 -1.17283e-014 -9.14409e-015 3.18055e-015 -4.9141 -1.269 0.3592 -1.09332e-014 -7.95139e-015 6.36111e-015 -3.1477 -1.685 0.8462 -1.25234e-014 -5.1684e-015 1.27222e-014 -0.8055 -1.585 0.7955 -1.17283e-014 -9.14409e-015 3.18055e-015 8.367 -8.2066 0.5982 33.121 -35.8216 27.4241 2.1923 -43.463 -0.4932 116.426 59.2643 -118.639 0.7333 -45.8593 -2.6451 0.572772 20.8084 -3.3171 -8.367 -8.2066 0.5982 -33.136 -35.8209 -27.4418 -2.1923 -43.463 -0.4931 -116.427 59.2651 118.634 -0.7333 -45.8593 -2.6451 -0.5858 20.8073 3.32056 
-0.000166206 4.31944 74.4856 -180 -85.9956 -180 0 -1.186 -1.5018 -4.52398e-005 -0.090943 -0.0898439 -8.67362e-019 9.964 0.2134 -0.000233035 -0.181886 -0.179688 -5.20417e-018 13.134 -3.2573 -0.000233143 -0.181878 -0.179688 3.46945e-018 20.686 -1.6905 9.40826e-005 20.8906 -0.000256937 -3.46945e-018 7.238 -0.1237 9.48923e-008 7.72802 9.83372e-008 1.7069 20.075 5.0056 -7.08216 -0.699628 0.22488 13.6458 -0.047 -4.849 -76.7514 -0.36586 2.04072 28.3255 -0.9759 2.2888 3.19528 -3.50156 -24.5682 22.1583 -0.53 10.8316 -15.279 6.08136 3.31771 0.786 0.112 2.5817 -1.39149e-015 2.18663e-015 3.18055e-015 0.3601 -0.878 4.2331 -3.97569e-016 1.59028e-015 3.18055e-015 1.8127 -1.216 2.2227 -1.19271e-015 1.09332e-015 6.36111e-015 0.9571 1.114 1.7695 -9.93923e-016 1.98785e-015 -0 4.1246 0.487 4.1451 -1.98785e-016 2.38542e-015 9.54166e-015 3.4052 -1.454 2.7682 -9.93923e-016 5.96354e-016 -3.18055e-015 1.4531 -1.795 1.2713 -3.97569e-016 -6.95746e-016 3.18055e-015 5.6954 0.21 2.1184 -1.98785e-016 2.38542e-015 9.54166e-015 3.9766 -1.54 2.3863 -9.93923e-016 5.96354e-016 -3.18055e-015 1.4042 -1.926 1.125 -3.97569e-016 -6.95746e-016 3.18055e-015 2.0956 0.66 -0.3894 -9.93923e-016 1.98785e-015 -0 5.0395 -0.09 2.4971 -1.98785e-016 2.38542e-015 9.54166e-015 3.7921 -1.552 1.4806 -9.93923e-016 5.96354e-016 -3.18055e-015 1.4655 -1.808 0.9609 -3.97569e-016 -6.95746e-016 3.18055e-015 4.9141 -1.269 0.3591 -1.98785e-016 2.38542e-015 9.54166e-015 3.1477 -1.685 0.8462 -9.93923e-016 5.96354e-016 -3.18055e-015 0.8055 -1.585 0.7955 -3.97569e-016 -6.95746e-016 3.18055e-015 -1.7069 20.075 5.0056 7.26143 -0.201182 -0.395083 -13.6458 -0.047 -4.849 76.8897 -0.342368 -1.45829 -28.3255 -0.9759 2.2888 -0.851217 -1.49506 42.9287 -22.1583 -0.53 10.8316 15.0989 6.44635 -2.68242 -0.786 0.112 2.5817 -8.94531e-016 -9.93923e-017 3.18055e-015 -0.3601 -0.878 4.2331 -2.43544e-006 -2.73239e-006 9.46065e-007 -1.8127 -1.216 2.2227 1.49089e-015 -3.47873e-015 1.27222e-014 -0.9571 1.114 1.7695 -8.94531e-016 1.88845e-015 3.18055e-015 -4.1246 0.487 4.1451 -2.08724e-015 -2.98177e-016 1.27222e-014 -3.4052 -1.454 2.7682 -2.43544e-006 -2.73239e-006 9.46065e-007 -1.4531 -1.795 1.2713 2.98177e-016 -3.47873e-015 9.54166e-015 -5.6954 0.21 2.1184 -2.08724e-015 -2.98177e-016 1.27222e-014 -3.9766 -1.54 2.3863 -2.43544e-006 -2.73239e-006 9.46065e-007 -1.4042 -1.926 1.125 2.98177e-016 -3.47873e-015 9.54166e-015 -2.0956 0.66 -0.3894 -8.94531e-016 1.88845e-015 3.18055e-015 -5.0395 -0.09 2.4971 -2.08724e-015 -2.98177e-016 1.27222e-014 -3.7921 -1.552 1.4806 -2.43544e-006 -2.73239e-006 9.46065e-007 -1.4655 -1.808 0.9609 2.98177e-016 -3.47873e-015 9.54166e-015 -4.9141 -1.269 0.3592 -2.08724e-015 -2.98177e-016 1.27222e-014 -3.1477 -1.685 0.8462 -2.43544e-006 -2.73239e-006 9.46065e-007 -0.8055 -1.585 0.7955 2.98177e-016 -3.47873e-015 9.54166e-015 8.367 -8.2066 0.5982 30.431 -33.7026 25.4623 2.1923 -43.463 -0.4932 104.716 64.4046 -108.669 0.7333 -45.8593 -2.6451 1.54428 19.6081 -3.91201 -8.367 -8.2066 0.5982 -30.4684 -33.7069 -25.5114 -2.1923 -43.463 -0.4931 -104.715 64.405 108.663 -0.7333 -45.8593 -2.6451 -1.5821 19.6052 3.9335 
